<?xml version="1.0" standalone="no"?>
<!DOCTYPE svg PUBLIC "-//W3C//DTD SVG 1.1//EN" "http://www.w3.org/Graphics/SVG/1.1/DTD/svg11.dtd">
<svg t="1701658209584" class="icon" viewBox="0 0 1024 1024" version="1.1"
    xmlns="http://www.w3.org/2000/svg" p-id="5679" xmlns:xlink="http://www.w3.org/1999/xlink"
    width="200" height="200">
    <path
        d="M932.99078095 378.44764444V269.13320635L512.7671873 26.51238941 92.54359365 269.13320635v260.16426667c-25.37786243 7.36629841-44.34515979 29.86612487-44.34515979 57.58672592s18.96729735 50.22042751 44.34515979 57.58672593v109.90283175l420.22359365 242.57638941 420.22359365-242.57638941V493.31985608c25.06361905-7.56242963 43.71775662-29.9528127 43.71775662-57.41335026 0-27.49737989-18.65413757-49.89643175-43.71775662-57.45886138zM81.67077249 586.88419894c0-15.16928678 12.30533757-27.47462434 27.47462434-27.47462434 15.12485926 0 27.43019683 12.30533757 27.43019682 27.47462434s-12.30533757 27.47462434-27.43019682 27.47462434c-15.16928678 0-27.47462434-12.30533757-27.47462434-27.47462434z m817.84875343 148.15925503L512.7671873 958.28845714 126.01484868 735.04345397v-90.62995979c25.20990476-7.45840424 44.032-29.91055238 44.032-57.52821164 0-27.61765926-18.82209524-50.06980741-44.032-57.52821164V288.463509L512.7671873 65.1740783l386.75233862 223.2894307v89.78258624c-25.55665608 7.25143703-44.70274709 29.81302857-44.70274708 57.66041058 0 27.81053968 19.146091 50.36562963 44.70274708 57.61489947v241.52204868z m16.24313228-271.70675132c-15.16928678 0-27.47462434-12.30533757-27.47462434-27.43019683 0-15.16928678 12.30533757-27.47462434 27.47462434-27.47462434s27.47462434 12.30533757 27.47462434 27.47462434c0 15.12485926-12.30533757 27.43019683-27.47462434 27.43019683z m-200.06576085-127.12770371c-6.44415662-2.46085079-13.73785397-0.7162582-18.43633438 4.38532063L511.82770794 544.82217989 323.48539259 344.66648043c-4.65405291-5.05606773-11.90332275-6.66737778-18.34639576-4.07216086a16.71774814 16.71774814 0 0 0-10.56074497 15.52687408v342.2728127h33.47125501V398.31866243l171.8304508 182.61441694a16.6917418 16.6917418 0 0 0 12.17097143 5.28037249c3.75900106-0.31315979 9.21816719-2.05883598 12.39527619-5.50359366l168.47454815-185.56722117v303.209109h33.47125502v-346.52376719a16.78709841 16.78709841 0 0 0-10.69511111-15.6189799z"
        stroke="#00aeec" stroke-linecap="round" stroke-width="40"></path>
</svg>